<mxfile host="app.diagrams.net" modified="2022-03-29T12:47:09.305Z" agent="5.0 (X11; CrOS x86_64 14268.67.0) AppleWebKit/537.36 (KHTML, like Gecko) Chrome/96.0.4664.111 Safari/537.36" etag="FBpx3naXVrgBrpf3sCVH" version="17.2.4" type="github">
  <diagram id="C5RBs43oDa-KdzZeNtuy" name="Page-1">
    <mxGraphModel dx="1019" dy="564" grid="1" gridSize="10" guides="1" tooltips="1" connect="1" arrows="1" fold="1" page="1" pageScale="1" pageWidth="827" pageHeight="1169" math="0" shadow="0">
      <root>
        <mxCell id="WIyWlLk6GJQsqaUBKTNV-0" />
        <mxCell id="WIyWlLk6GJQsqaUBKTNV-1" parent="WIyWlLk6GJQsqaUBKTNV-0" />
        <mxCell id="cJ6OhSSRO1YWLbn897M6-4" value="" style="shape=singleArrow;whiteSpace=wrap;html=1;arrowWidth=0.28600667317708334;arrowSize=0.3554119873046875;" parent="WIyWlLk6GJQsqaUBKTNV-1" vertex="1">
          <mxGeometry x="400" y="120" width="50" height="120" as="geometry" />
        </mxCell>
        <mxCell id="cJ6OhSSRO1YWLbn897M6-2" value="Steep &lt;br&gt;mountains" style="shape=switch;whiteSpace=wrap;html=1;" parent="WIyWlLk6GJQsqaUBKTNV-1" vertex="1">
          <mxGeometry x="290" y="105" width="150" height="150" as="geometry" />
        </mxCell>
        <mxCell id="cJ6OhSSRO1YWLbn897M6-1" value="" style="shape=singleArrow;whiteSpace=wrap;html=1;arrowWidth=0.2849049886067708;arrowSize=0.27071868896484375;" parent="WIyWlLk6GJQsqaUBKTNV-1" vertex="1">
          <mxGeometry x="220" y="120" width="110" height="120" as="geometry" />
        </mxCell>
        <mxCell id="cJ6OhSSRO1YWLbn897M6-0" value="Sheep needed to graze" style="rounded=0;whiteSpace=wrap;html=1;" parent="WIyWlLk6GJQsqaUBKTNV-1" vertex="1">
          <mxGeometry x="110" y="120" width="160" height="120" as="geometry" />
        </mxCell>
        <mxCell id="cJ6OhSSRO1YWLbn897M6-3" value="Sheep grazed on mountainside" style="rounded=0;whiteSpace=wrap;html=1;" parent="WIyWlLk6GJQsqaUBKTNV-1" vertex="1">
          <mxGeometry x="450" y="120" width="160" height="120" as="geometry" />
        </mxCell>
        <mxCell id="cJ6OhSSRO1YWLbn897M6-5" value="" style="shape=singleArrow;whiteSpace=wrap;html=1;arrowWidth=0.28600667317708334;arrowSize=0.3554119873046875;" parent="WIyWlLk6GJQsqaUBKTNV-1" vertex="1">
          <mxGeometry x="400" y="270" width="50" height="120" as="geometry" />
        </mxCell>
        <mxCell id="cJ6OhSSRO1YWLbn897M6-6" value="Greeks conquered &lt;br&gt;more land" style="shape=switch;whiteSpace=wrap;html=1;" parent="WIyWlLk6GJQsqaUBKTNV-1" vertex="1">
          <mxGeometry x="290" y="255" width="150" height="150" as="geometry" />
        </mxCell>
        <mxCell id="cJ6OhSSRO1YWLbn897M6-7" value="" style="shape=singleArrow;whiteSpace=wrap;html=1;arrowWidth=0.2849049886067708;arrowSize=0.27071868896484375;" parent="WIyWlLk6GJQsqaUBKTNV-1" vertex="1">
          <mxGeometry x="220" y="270" width="110" height="120" as="geometry" />
        </mxCell>
        <mxCell id="cJ6OhSSRO1YWLbn897M6-8" value="Greeks needed more land." style="rounded=0;whiteSpace=wrap;html=1;" parent="WIyWlLk6GJQsqaUBKTNV-1" vertex="1">
          <mxGeometry x="110" y="270" width="160" height="120" as="geometry" />
        </mxCell>
        <mxCell id="cJ6OhSSRO1YWLbn897M6-9" value="Greeks got more land for farms." style="rounded=0;whiteSpace=wrap;html=1;" parent="WIyWlLk6GJQsqaUBKTNV-1" vertex="1">
          <mxGeometry x="450" y="270" width="160" height="120" as="geometry" />
        </mxCell>
        <mxCell id="cJ6OhSSRO1YWLbn897M6-15" value="" style="shape=singleArrow;whiteSpace=wrap;html=1;arrowWidth=0.28600667317708334;arrowSize=0.3554119873046875;" parent="WIyWlLk6GJQsqaUBKTNV-1" vertex="1">
          <mxGeometry x="400" y="420" width="50" height="120" as="geometry" />
        </mxCell>
        <mxCell id="cJ6OhSSRO1YWLbn897M6-16" value="Communication &lt;br&gt;was difficult" style="shape=switch;whiteSpace=wrap;html=1;" parent="WIyWlLk6GJQsqaUBKTNV-1" vertex="1">
          <mxGeometry x="290" y="405" width="150" height="150" as="geometry" />
        </mxCell>
        <mxCell id="cJ6OhSSRO1YWLbn897M6-17" value="" style="shape=singleArrow;whiteSpace=wrap;html=1;arrowWidth=0.2849049886067708;arrowSize=0.27071868896484375;" parent="WIyWlLk6GJQsqaUBKTNV-1" vertex="1">
          <mxGeometry x="220" y="420" width="110" height="120" as="geometry" />
        </mxCell>
        <mxCell id="cJ6OhSSRO1YWLbn897M6-18" value="Greek developed into several city-states" style="rounded=0;whiteSpace=wrap;html=1;" parent="WIyWlLk6GJQsqaUBKTNV-1" vertex="1">
          <mxGeometry x="450" y="420" width="160" height="120" as="geometry" />
        </mxCell>
        <mxCell id="cJ6OhSSRO1YWLbn897M6-19" value="" style="shape=singleArrow;whiteSpace=wrap;html=1;arrowWidth=0.28600667317708334;arrowSize=0.3554119873046875;" parent="WIyWlLk6GJQsqaUBKTNV-1" vertex="1">
          <mxGeometry x="400" y="570" width="50" height="120" as="geometry" />
        </mxCell>
        <mxCell id="cJ6OhSSRO1YWLbn897M6-20" value="Mountains&lt;br&gt;made travel&lt;br&gt;very hard" style="shape=switch;whiteSpace=wrap;html=1;" parent="WIyWlLk6GJQsqaUBKTNV-1" vertex="1">
          <mxGeometry x="290" y="555" width="150" height="150" as="geometry" />
        </mxCell>
        <mxCell id="cJ6OhSSRO1YWLbn897M6-21" value="" style="shape=singleArrow;whiteSpace=wrap;html=1;arrowWidth=0.2849049886067708;arrowSize=0.27071868896484375;" parent="WIyWlLk6GJQsqaUBKTNV-1" vertex="1">
          <mxGeometry x="220" y="570" width="110" height="120" as="geometry" />
        </mxCell>
        <mxCell id="cJ6OhSSRO1YWLbn897M6-22" value="Greeks used mostly water-based transport to trade." style="rounded=0;whiteSpace=wrap;html=1;" parent="WIyWlLk6GJQsqaUBKTNV-1" vertex="1">
          <mxGeometry x="450" y="570" width="160" height="120" as="geometry" />
        </mxCell>
        <mxCell id="cJ6OhSSRO1YWLbn897M6-23" value="Greek has tons&lt;br&gt;&amp;nbsp;of mountains" style="rounded=0;whiteSpace=wrap;html=1;" parent="WIyWlLk6GJQsqaUBKTNV-1" vertex="1">
          <mxGeometry x="110" y="420" width="160" height="120" as="geometry" />
        </mxCell>
        <mxCell id="cJ6OhSSRO1YWLbn897M6-24" value="Big mountains in Greece" style="rounded=0;whiteSpace=wrap;html=1;" parent="WIyWlLk6GJQsqaUBKTNV-1" vertex="1">
          <mxGeometry x="110" y="570" width="160" height="120" as="geometry" />
        </mxCell>
      </root>
    </mxGraphModel>
  </diagram>
</mxfile>
